<svg width="17" height="13" viewBox="0 0 17 13" fill="none" xmlns="http://www.w3.org/2000/svg">
<rect width="17" height="13" fill="#1E1E1E"/>
<g id="Home page" clip-path="url(#clip0_0_1)">
<rect width="430" height="932" transform="translate(-228 -442)" fill="#333F48"/>
<g id="Rectangle 756" filter="url(#filter0_d_0_1)">
<rect x="-210" y="-16" width="388" height="201" rx="11" fill="#20262A"/>
</g>
<path id="Vector" d="M8.52267 2.73358C9.78463 0.788262 11.5913 0.407808 12.8887 0.681249L12.8887 0.681703C14.535 1.02892 15.6355 2.3426 15.6355 3.83434C15.6355 5.09515 15.0959 6.20158 14.172 7.30435C13.2398 8.41702 11.9567 9.47986 10.5274 10.6609L10.526 10.6621C10.1431 10.9809 9.82208 11.2563 9.55004 11.4927C9.12173 11.8629 8.81849 12.1151 8.57082 12.2769C8.32676 12.4363 8.19142 12.4704 8.09813 12.4704C8.00486 12.4704 7.86953 12.4363 7.62543 12.2769C7.37776 12.115 7.07453 11.8629 6.64624 11.4927C6.37553 11.2574 6.0537 10.9788 5.66923 10.6613C4.23992 9.47659 2.95669 8.41068 2.02431 7.2972C1.09998 6.19332 0.560745 5.08872 0.560745 3.83434C0.560745 2.34547 1.66093 1.03142 3.30783 0.681653C4.61098 0.407329 6.41908 0.787693 7.68397 2.73393L8.10359 3.3796L8.52267 2.73358Z" stroke="#E22726"/>
</g>
<defs>
<filter id="filter0_d_0_1" x="-220" y="-22" width="408" height="221" filterUnits="userSpaceOnUse" color-interpolation-filters="sRGB">
<feFlood flood-opacity="0" result="BackgroundImageFix"/>
<feColorMatrix in="SourceAlpha" type="matrix" values="0 0 0 0 0 0 0 0 0 0 0 0 0 0 0 0 0 0 127 0" result="hardAlpha"/>
<feOffset dy="4"/>
<feGaussianBlur stdDeviation="5"/>
<feComposite in2="hardAlpha" operator="out"/>
<feColorMatrix type="matrix" values="0 0 0 0 0 0 0 0 0 0 0 0 0 0 0 0 0 0 0.15 0"/>
<feBlend mode="normal" in2="BackgroundImageFix" result="effect1_dropShadow_0_1"/>
<feBlend mode="normal" in="SourceGraphic" in2="effect1_dropShadow_0_1" result="shape"/>
</filter>
<clipPath id="clip0_0_1">
<rect width="430" height="932" fill="white" transform="translate(-228 -442)"/>
</clipPath>
</defs>
</svg>
